<svg width="38" height="39" viewBox="0 0 38 39" fill="none" xmlns="http://www.w3.org/2000/svg">
<mask id="path-1-inside-1_8_40" fill="white">
<path fill-rule="evenodd" clip-rule="evenodd" d="M1.32231 32.2279C-0.0445262 33.5947 -0.0445263 35.8108 1.32231 37.1777C2.68914 38.5445 4.90522 38.5445 6.27206 37.1777L19 24.4497L31.7279 37.1777C33.0948 38.5445 35.3108 38.5445 36.6777 37.1777C38.0445 35.8108 38.0445 33.5948 36.6777 32.2279L23.9497 19.5L36.6776 6.77207C38.0445 5.40523 38.0445 3.18916 36.6776 1.82232C35.3108 0.455486 33.0947 0.455486 31.7279 1.82232L19 14.5502L6.27208 1.82233C4.90524 0.455493 2.68916 0.455493 1.32233 1.82233C-0.0445056 3.18916 -0.0445058 5.40524 1.32233 6.77207L14.0502 19.5L1.32231 32.2279Z"/>
</mask>
<path fill-rule="evenodd" clip-rule="evenodd" d="M1.32231 32.2279C-0.0445262 33.5947 -0.0445263 35.8108 1.32231 37.1777C2.68914 38.5445 4.90522 38.5445 6.27206 37.1777L19 24.4497L31.7279 37.1777C33.0948 38.5445 35.3108 38.5445 36.6777 37.1777C38.0445 35.8108 38.0445 33.5948 36.6777 32.2279L23.9497 19.5L36.6776 6.77207C38.0445 5.40523 38.0445 3.18916 36.6776 1.82232C35.3108 0.455486 33.0947 0.455486 31.7279 1.82232L19 14.5502L6.27208 1.82233C4.90524 0.455493 2.68916 0.455493 1.32233 1.82233C-0.0445056 3.18916 -0.0445058 5.40524 1.32233 6.77207L14.0502 19.5L1.32231 32.2279Z" fill="white"/>
<path d="M1.32231 37.1777L2.02942 36.4706L2.02941 36.4706L1.32231 37.1777ZM1.32231 32.2279L2.02942 32.935L2.02942 32.935L1.32231 32.2279ZM6.27206 37.1777L5.56495 36.4706L5.56495 36.4706L6.27206 37.1777ZM19 24.4497L19.7071 23.7426L19 23.0355L18.2929 23.7426L19 24.4497ZM36.6777 32.2279L37.3848 31.5208L37.3848 31.5208L36.6777 32.2279ZM23.9497 19.5L23.2426 18.7929L22.5355 19.5L23.2426 20.2071L23.9497 19.5ZM36.6776 6.77207L35.9705 6.06496L35.9705 6.06496L36.6776 6.77207ZM36.6776 1.82232L35.9705 2.52943L35.9705 2.52943L36.6776 1.82232ZM31.7279 1.82232L32.435 2.52943L32.435 2.52943L31.7279 1.82232ZM19 14.5502L18.2929 15.2573L19 15.9644L19.7071 15.2573L19 14.5502ZM6.27208 1.82233L5.56497 2.52943L5.56497 2.52943L6.27208 1.82233ZM1.32233 1.82233L0.615223 1.11522L1.32233 1.82233ZM1.32233 6.77207L2.02944 6.06497L2.02944 6.06497L1.32233 6.77207ZM14.0502 19.5L14.7573 20.2071L15.4645 19.5L14.7573 18.7929L14.0502 19.5ZM2.02941 36.4706C1.05311 35.4942 1.0531 33.9113 2.02942 32.935L0.615202 31.5208C-1.14216 33.2782 -1.14216 36.1274 0.615202 37.8848L2.02941 36.4706ZM5.56495 36.4706C4.58864 37.4469 3.00573 37.4469 2.02942 36.4706L0.615201 37.8848C2.37256 39.6421 5.2218 39.6421 6.97916 37.8848L5.56495 36.4706ZM18.2929 23.7426L5.56495 36.4706L6.97916 37.8848L19.7071 25.1568L18.2929 23.7426ZM32.435 36.4706L19.7071 23.7426L18.2929 25.1568L31.0208 37.8848L32.435 36.4706ZM35.9706 36.4706C34.9943 37.4469 33.4113 37.4469 32.435 36.4706L31.0208 37.8848C32.7782 39.6421 35.6274 39.6421 37.3848 37.8848L35.9706 36.4706ZM35.9706 32.935C36.9469 33.9113 36.9469 35.4943 35.9706 36.4706L37.3848 37.8848C39.1421 36.1274 39.1421 33.2782 37.3848 31.5208L35.9706 32.935ZM23.2426 20.2071L35.9706 32.935L37.3848 31.5208L24.6568 18.7929L23.2426 20.2071ZM35.9705 6.06496L23.2426 18.7929L24.6568 20.2071L37.3848 7.47917L35.9705 6.06496ZM35.9705 2.52943C36.9469 3.50574 36.9469 5.08865 35.9705 6.06496L37.3848 7.47918C39.1421 5.72182 39.1421 2.87257 37.3848 1.11521L35.9705 2.52943ZM32.435 2.52943C33.4113 1.55312 34.9942 1.55312 35.9705 2.52943L37.3848 1.11521C35.6274 -0.642146 32.7782 -0.642145 31.0208 1.11521L32.435 2.52943ZM19.7071 15.2573L32.435 2.52943L31.0208 1.11521L18.2929 13.8431L19.7071 15.2573ZM5.56497 2.52943L18.2929 15.2573L19.7071 13.8431L6.97918 1.11522L5.56497 2.52943ZM2.02944 2.52943C3.00575 1.55312 4.58866 1.55312 5.56497 2.52943L6.97918 1.11522C5.22182 -0.642138 2.37258 -0.642138 0.615223 1.11522L2.02944 2.52943ZM2.02944 6.06497C1.05313 5.08866 1.05313 3.50575 2.02944 2.52943L0.615223 1.11522C-1.14214 2.87258 -1.14214 5.72182 0.615222 7.47918L2.02944 6.06497ZM14.7573 18.7929L2.02944 6.06497L0.615222 7.47918L13.3431 20.2071L14.7573 18.7929ZM2.02942 32.935L14.7573 20.2071L13.3431 18.7929L0.615202 31.5208L2.02942 32.935Z" fill="black" mask="url(#path-1-inside-1_8_40)"/>
</svg>
