<svg width="50" height="29" viewBox="0 0 50 29" fill="none" xmlns="http://www.w3.org/2000/svg">
<mask id="path-1-inside-1_8_41" fill="white">
<path fill-rule="evenodd" clip-rule="evenodd" d="M0 3.5C0 1.567 1.567 0 3.5 0H46.5C48.433 0 50 1.567 50 3.5C50 5.433 48.433 7 46.5 7H3.5C1.567 7 0 5.433 0 3.5ZM0 14.5C0 12.567 1.567 11 3.5 11H46.5C48.433 11 50 12.567 50 14.5C50 16.433 48.433 18 46.5 18H3.5C1.567 18 0 16.433 0 14.5ZM3.5 22C1.567 22 0 23.567 0 25.5C0 27.433 1.567 29 3.5 29H46.5C48.433 29 50 27.433 50 25.5C50 23.567 48.433 22 46.5 22H3.5Z"/>
</mask>
<path fill-rule="evenodd" clip-rule="evenodd" d="M0 3.5C0 1.567 1.567 0 3.5 0H46.5C48.433 0 50 1.567 50 3.5C50 5.433 48.433 7 46.5 7H3.5C1.567 7 0 5.433 0 3.5ZM0 14.5C0 12.567 1.567 11 3.5 11H46.5C48.433 11 50 12.567 50 14.5C50 16.433 48.433 18 46.5 18H3.5C1.567 18 0 16.433 0 14.5ZM3.5 22C1.567 22 0 23.567 0 25.5C0 27.433 1.567 29 3.5 29H46.5C48.433 29 50 27.433 50 25.5C50 23.567 48.433 22 46.5 22H3.5Z" fill="white"/>
<path d="M3.5 -1C1.01472 -1 -1 1.01472 -1 3.5H1C1 2.11929 2.11929 1 3.5 1V-1ZM46.5 -1H3.5V1H46.5V-1ZM51 3.5C51 1.01472 48.9853 -1 46.5 -1V1C47.8807 1 49 2.11929 49 3.5H51ZM46.5 8C48.9853 8 51 5.98528 51 3.5H49C49 4.88071 47.8807 6 46.5 6V8ZM3.5 8H46.5V6H3.5V8ZM-1 3.5C-1 5.98528 1.01472 8 3.5 8V6C2.11929 6 1 4.88071 1 3.5H-1ZM3.5 10C1.01472 10 -1 12.0147 -1 14.5H1C1 13.1193 2.11929 12 3.5 12V10ZM46.5 10H3.5V12H46.5V10ZM51 14.5C51 12.0147 48.9853 10 46.5 10V12C47.8807 12 49 13.1193 49 14.5H51ZM46.5 19C48.9853 19 51 16.9853 51 14.5H49C49 15.8807 47.8807 17 46.5 17V19ZM3.5 19H46.5V17H3.5V19ZM-1 14.5C-1 16.9853 1.01472 19 3.5 19V17C2.11929 17 1 15.8807 1 14.5H-1ZM1 25.5C1 24.1193 2.11929 23 3.5 23V21C1.01472 21 -1 23.0147 -1 25.5H1ZM3.5 28C2.11929 28 1 26.8807 1 25.5H-1C-1 27.9853 1.01472 30 3.5 30V28ZM46.5 28H3.5V30H46.5V28ZM49 25.5C49 26.8807 47.8807 28 46.5 28V30C48.9853 30 51 27.9853 51 25.5H49ZM46.5 23C47.8807 23 49 24.1193 49 25.5H51C51 23.0147 48.9853 21 46.5 21V23ZM3.5 23H46.5V21H3.5V23Z" fill="black" mask="url(#path-1-inside-1_8_41)"/>
</svg>
